<svg width="48" height="48" viewBox="0 0 48 48" fill="none" xmlns="http://www.w3.org/2000/svg">
<g id="business_24px">
<path id="icon/communication/business_24px" fill-rule="evenodd" clip-rule="evenodd" d="M24 10V14H40C42.2 14 44 15.8 44 18V38C44 40.2 42.2 42 40 42H8C5.8 42 4 40.2 4 38V10C4 7.8 5.8 6 8 6H20C22.2 6 24 7.8 24 10ZM8 38H12V34H8V38ZM12 30H8V26H12V30ZM8 22H12V18H8V22ZM12 14H8V10H12V14ZM16 38H20V34H16V38ZM20 30H16V26H20V30ZM16 22H20V18H16V22ZM20 14H16V10H20V14ZM24 38H38C39.1 38 40 37.1 40 36V20C40 18.9 39.1 18 38 18H24V22H28V26H24V30H28V34H24V38ZM36 22H32V26H36V22ZM32 30H36V34H32V30Z" fill="#A3B9DC"/>
</g>
</svg>
