<svg width="48" height="48" viewBox="0 0 48 48" fill="none" xmlns="http://www.w3.org/2000/svg">
<g id="email_24px">
<path id="icon/communication/email_24px" fill-rule="evenodd" clip-rule="evenodd" d="M8 8H40C42.2 8 44 9.8 44 12V36C44 38.2 42.2 40 40 40H8C5.8 40 4 38.2 4 36L4.02 12C4.02 9.8 5.8 8 8 8ZM25.06 25.34L39.2 16.5C39.7 16.18 40 15.64 40 15.06C40 13.72 38.54 12.92 37.4 13.62L24 22L10.6 13.62C9.46 12.92 8 13.72 8 15.06C8 15.64 8.3 16.18 8.8 16.5L22.94 25.34C23.58 25.74 24.42 25.74 25.06 25.34Z" fill="#A3B9DC"/>
</g>
</svg>
