<svg width="48" height="48" viewBox="0 0 48 48" fill="none" xmlns="http://www.w3.org/2000/svg">
<g id="location_on_24px">
<path id="icon/communication/location_on_24px" fill-rule="evenodd" clip-rule="evenodd" d="M10 18.53C10 10.79 16.26 4.53003 24 4.53003C31.74 4.53003 38 10.79 38 18.53C38 26.87 29.16 38.37 25.54 42.75C24.74 43.71 23.28 43.71 22.48 42.75C18.84 38.37 10 26.87 10 18.53ZM19 18.53C19 21.29 21.24 23.53 24 23.53C26.76 23.53 29 21.29 29 18.53C29 15.77 26.76 13.53 24 13.53C21.24 13.53 19 15.77 19 18.53Z" fill="#A3B9DC"/>
</g>
</svg>
