<svg width="370" height="370" viewBox="0 0 370 370" fill="none" xmlns="http://www.w3.org/2000/svg">
<path d="M298.33 185.884H251.883V188.536H298.33V185.884Z" fill="#174082"/>
<path d="M115.33 185.884H68.8832V188.536H115.33V185.884Z" fill="#174082"/>
<path d="M38.2284 368H2V2H324.819" stroke="#416AAC" stroke-width="3" stroke-miterlimit="3" stroke-linecap="square"/>
<path d="M368 54.1594V243.348" stroke="#416AAC" stroke-width="3" stroke-miterlimit="3" stroke-linecap="square"/>
<path d="M240.736 368H58.665" stroke="#416AAC" stroke-width="3" stroke-miterlimit="3" stroke-linecap="square"/>
<path d="M368 345.014V368H346.635" stroke="#416AAC" stroke-width="3" stroke-miterlimit="3" stroke-linecap="square"/>
<path d="M340.635 2H368V36.1441" stroke="#416AAC" stroke-width="3" stroke-miterlimit="3" stroke-linecap="square"/>
<path d="M92.04 335.256C84.072 335.256 76.368 334.176 68.928 332.016C61.488 329.856 55.512 327.048 51 323.592L58.92 306.024C63.24 309.192 68.376 311.736 74.328 313.656C80.28 315.576 86.232 316.536 92.184 316.536C98.808 316.536 103.704 315.552 106.872 313.584C110.04 311.616 111.624 309 111.624 305.736C111.624 303.336 110.688 301.344 108.816 299.76C106.944 298.176 104.544 296.904 101.616 295.944C98.688 294.984 94.728 293.928 89.736 292.776C82.056 290.952 75.768 289.128 70.872 287.304C65.976 285.48 61.776 282.552 58.272 278.52C54.768 274.488 53.016 269.112 53.016 262.392C53.016 256.536 54.6 251.232 57.768 246.48C60.936 241.728 65.712 237.96 72.096 235.176C78.48 232.392 86.28 231 95.496 231C101.928 231 108.216 231.768 114.36 233.304C120.504 234.84 125.88 237.048 130.488 239.928L123.288 257.64C113.976 252.36 104.664 249.72 95.352 249.72C88.824 249.72 84 250.776 80.88 252.888C77.76 255 76.2 257.784 76.2 261.24C76.2 264.696 78 267.264 81.6 268.944C85.2 270.624 90.696 272.28 98.088 273.912C105.768 275.736 112.056 277.56 116.952 279.384C121.848 281.208 126.048 284.088 129.552 288.024C133.056 291.96 134.808 297.288 134.808 304.008C134.808 309.768 133.2 315.024 129.984 319.776C126.768 324.528 121.944 328.296 115.512 331.08C109.08 333.864 101.256 335.256 92.04 335.256Z" fill="#174082"/>
<path d="M238.344 232.728L199.176 297.816V333.528H175.848V297.528L136.824 232.728H161.592L188.52 277.512L215.448 232.728H238.344Z" fill="#174082"/>
<path d="M281.256 335.256C273.288 335.256 265.584 334.176 258.144 332.016C250.704 329.856 244.728 327.048 240.216 323.592L248.136 306.024C252.456 309.192 257.592 311.736 263.544 313.656C269.496 315.576 275.448 316.536 281.4 316.536C288.024 316.536 292.92 315.552 296.088 313.584C299.256 311.616 300.84 309 300.84 305.736C300.84 303.336 299.904 301.344 298.032 299.76C296.16 298.176 293.76 296.904 290.832 295.944C287.904 294.984 283.944 293.928 278.952 292.776C271.272 290.952 264.984 289.128 260.088 287.304C255.192 285.48 250.992 282.552 247.488 278.52C243.984 274.488 242.232 269.112 242.232 262.392C242.232 256.536 243.816 251.232 246.984 246.48C250.152 241.728 254.928 237.96 261.312 235.176C267.696 232.392 275.496 231 284.712 231C291.144 231 297.432 231.768 303.576 233.304C309.72 234.84 315.096 237.048 319.704 239.928L312.504 257.64C303.192 252.36 293.88 249.72 284.568 249.72C278.04 249.72 273.216 250.776 270.096 252.888C266.976 255 265.416 257.784 265.416 261.24C265.416 264.696 267.216 267.264 270.816 268.944C274.416 270.624 279.912 272.28 287.304 273.912C294.984 275.736 301.272 277.56 306.168 279.384C311.064 281.208 315.264 284.088 318.768 288.024C322.272 291.96 324.024 297.288 324.024 304.008C324.024 309.768 322.416 315.024 319.2 319.776C315.984 324.528 311.16 328.296 304.728 331.08C298.296 333.864 290.472 335.256 281.256 335.256Z" fill="#174082"/>
<path d="M142 136H121.001L120.863 75.4L92.4043 125.323H82.3194L53.9987 76.6986V136H33V35H51.512L87.7072 97.7643L123.35 35H141.724L142 136Z" fill="#174082"/>
<path d="M171.184 117.08H226.048V135.8H148V35H224.176V53.72H171.184V75.608H217.984V93.752H171.184V117.08Z" fill="#416AAC"/>
<path d="M230.528 223.472H205.04L188.048 199.712L170.48 223.472H146L175.808 184.448L147.008 146H172.208L188.624 168.608L205.472 146H229.376L200.576 183.872L230.528 223.472Z" fill="#416AAC"/>
<path d="M233 35H278.792C289.736 35 299.384 37.112 307.736 41.336C316.184 45.464 322.712 51.32 327.32 58.904C332.024 66.488 334.376 75.32 334.376 85.4C334.376 95.48 332.024 104.312 327.32 111.896C322.712 119.48 316.184 125.384 307.736 129.608C299.384 133.736 289.736 135.8 278.792 135.8H233V35ZM277.64 116.648C287.72 116.648 295.736 113.864 301.688 108.296C307.736 102.632 310.76 95 310.76 85.4C310.76 75.8 307.736 68.216 301.688 62.648C295.736 56.984 287.72 54.152 277.64 54.152H256.328V116.648H277.64Z" fill="#174082"/>
</svg>
