<svg width="48" height="48" viewBox="0 0 48 48" fill="none" xmlns="http://www.w3.org/2000/svg">
<g id="phone_24px">
<path id="icon/communication/phone_24px" d="M38.4436 30.5363L33.3636 29.9563C32.1436 29.8163 30.9436 30.2363 30.0836 31.0963L26.4036 34.7763C20.7436 31.8963 16.1036 27.2763 13.2236 21.5963L16.9236 17.8963C17.7836 17.0363 18.2036 15.8363 18.0636 14.6163L17.4836 9.57625C17.2436 7.55625 15.5436 6.03625 13.5036 6.03625H10.0436C7.7836 6.03625 5.9036 7.91625 6.0436 10.1763C7.1036 27.2563 20.7636 40.8963 37.8236 41.9563C40.0836 42.0963 41.9636 40.2163 41.9636 37.9563V34.4963C41.9836 32.4763 40.4636 30.7763 38.4436 30.5363Z" fill="#A3B9DC"/>
</g>
</svg>
